Coordinates
version=1
nRows=20
nColumns=38
inDegrees=no

Units are S.I. units (second, meters, Newtons, ...)
If the header above contains a line with 'inDegrees', this indicates whether rotational values are in degrees (yes) or radians (no).

endheader
time	pelvis_tilt	pelvis_list	pelvis_rotation	pelvis_tx	pelvis_ty	pelvis_tz	hip_flexion_r	hip_adduction_r	hip_rotation_r	knee_angle_r	ankle_angle_r	subtalar_angle_r	mtp_angle_r	hip_flexion_l	hip_adduction_l	hip_rotation_l	knee_angle_l	ankle_angle_l	subtalar_angle_l	mtp_angle_l	lumbar_extension	lumbar_bending	lumbar_rotation	arm_flex_r	arm_add_r	arm_rot_r	elbow_flex_r	pro_sup_r	wrist_flex_r	wrist_dev_r	arm_flex_l	arm_add_l	arm_rot_l	elbow_flex_l	pro_sup_l	wrist_flex_l	wrist_dev_l
1.37	-0.146023	1.15124	-1.32979	0.671344	0.417164	0.960563	-0.0726078	0.0158339	-0.120356	1.20379	-0.523782	0	0	-0.353673	-0.087872	-0.181391	0.242641	-0.280031	0	0	-0.406102	0.151387	0.205275	-0.0518022	-0.927475	0.0757035	1.60181	0.32077	0	0	0.674717	-0.464329	0.769217	1.04734	0.673713	0	0
1.38	-0.153202	1.15052	-1.31727	0.672749	0.408342	0.961279	-0.0496662	0.0182526	-0.126616	1.20178	-0.496834	0	0	-0.367463	-0.092336	-0.179828	0.234725	-0.278406	0	0	-0.405778	0.157518	0.199359	-0.0498457	-0.929337	0.0770568	1.60169	0.318766	0	0	0.675738	-0.463195	0.769059	1.04584	0.674123	0	0
1.39	-0.159661	1.14985	-1.3051	0.674138	0.39954	0.961838	-0.0281288	0.0202199	-0.133238	1.19515	-0.469283	0	0	-0.381069	-0.0968087	-0.178136	0.227269	-0.27636	0	0	-0.405502	0.163446	0.193262	-0.0486592	-0.931276	0.0775598	1.60221	0.316643	0	0	0.676673	-0.461981	0.768264	1.04481	0.674071	0	0
1.4	-0.164837	1.14919	-1.2941	0.675488	0.390761	0.962268	-0.00809094	0.0214113	-0.139929	1.1842	-0.4419	0	0	-0.394644	-0.100831	-0.17667	0.22027	-0.27403	0	0	-0.405243	0.168876	0.187018	-0.0474229	-0.933305	0.0781411	1.60291	0.314412	0	0	0.677714	-0.460748	0.767381	1.04379	0.673613	0	0
1.41	-0.169737	1.14317	-1.28388	0.676612	0.382315	0.963	0.00424011	0.0247908	-0.145984	1.16623	-0.416739	0	0	-0.413951	-0.106363	-0.177101	0.212832	-0.272395	0	0	-0.41127	0.175213	0.182063	-0.0446064	-0.936294	0.0790688	1.60407	0.311095	0	0	0.680673	-0.459839	0.767458	1.04316	0.672196	0	0
1.42	-0.172429	1.14805	-1.27604	0.677846	0.373178	0.962638	0.027788	0.0221205	-0.152633	1.14995	-0.391931	0	0	-0.421962	-0.107307	-0.173991	0.207262	-0.267924	0	0	-0.404959	0.177941	0.175435	-0.0447563	-0.937659	0.0793129	1.60481	0.308116	0	0	0.680391	-0.459513	0.767056	1.043	0.67169	0	0
1.43	-0.176192	1.14425	-1.26785	0.678687	0.364601	0.96296	0.0393902	0.0245934	-0.157123	1.12378	-0.371347	0	0	-0.439723	-0.112067	-0.17349	0.199581	-0.264417	0	0	-0.408495	0.182637	0.170829	-0.0414027	-0.93981	0.0809511	1.60478	0.3055	0	0	0.683327	-0.459219	0.768017	1.04233	0.671465	0	0
1.44	-0.178064	1.15088	-1.26201	0.679673	0.355419	0.962261	0.0613009	0.0215699	-0.160879	1.09863	-0.351366	0	0	-0.446652	-0.112071	-0.170311	0.192777	-0.259993	0	0	-0.400601	0.183841	0.165085	-0.0416116	-0.940434	0.0808705	1.6049	0.303384	0	0	0.683194	-0.45898	0.768448	1.04197	0.671361	0	0
1.45	-0.180185	1.15428	-1.25635	0.680448	0.346461	0.961832	0.0767151	0.0208603	-0.162546	1.06549	-0.333722	0	0	-0.456924	-0.113479	-0.168973	0.185559	-0.256026	0	0	-0.39632	0.185569	0.160445	-0.0408384	-0.940592	0.0808344	1.60427	0.30218	0	0	0.684215	-0.458245	0.769308	1.04079	0.671885	0	0
1.46	-0.181164	1.15743	-1.25238	0.681084	0.337503	0.961313	0.0890141	0.0202761	-0.162188	1.02683	-0.319242	0	0	-0.46724	-0.114488	-0.168805	0.179315	-0.252048	0	0	-0.392741	0.186521	0.156751	-0.0410296	-0.940537	0.0795991	1.60392	0.301609	0	0	0.68532	-0.457297	0.769907	1.03996	0.671967	0	0
1.47	-0.181517	1.16103	-1.24967	0.681581	0.328545	0.960675	0.0990285	0.0204978	-0.159546	0.982203	-0.309266	0	0	-0.476666	-0.115127	-0.169594	0.174143	-0.248926	0	0	-0.389197	0.186725	0.15389	-0.04189	-0.940281	0.0775915	1.6037	0.301473	0	0	0.686184	-0.456126	0.769844	1.03953	0.671729	0	0
1.48	-0.181603	1.16542	-1.24777	0.681991	0.31956	0.959889	0.106874	0.0212439	-0.15497	0.931276	-0.301154	0	0	-0.484904	-0.115458	-0.171231	0.169955	-0.244741	0	0	-0.384993	0.186486	0.151532	-0.0429978	-0.939872	0.075336	1.6034	0.301837	0	0	0.686755	-0.454798	0.76918	1.03899	0.672738	0	0
1.49	-0.181507	1.17062	-1.2466	0.682323	0.310503	0.958916	0.112737	0.0215908	-0.149327	0.875355	-0.294674	0	0	-0.491725	-0.115255	-0.172746	0.167338	-0.240205	0	0	-0.380034	0.185835	0.149693	-0.0444064	-0.939557	0.0730228	1.60323	0.302165	0	0	0.686828	-0.453257	0.767662	1.0384	0.675204	0	0
1.5	-0.181001	1.17675	-1.24622	0.682604	0.301334	0.957729	0.117421	0.0209093	-0.144667	0.817024	-0.289386	0	0	-0.497197	-0.114433	-0.173895	0.165787	-0.235917	0	0	-0.374111	0.184638	0.148135	-0.0458869	-0.939656	0.0711185	1.60303	0.30227	0	0	0.686171	-0.451304	0.765287	1.03762	0.678344	0	0
1.51	-0.179708	1.1836	-1.247	0.682818	0.292011	0.95633	0.120797	0.0190422	-0.141909	0.756795	-0.283275	0	0	-0.501851	-0.112898	-0.174768	0.165043	-0.230497	0	0	-0.367257	0.182768	0.14682	-0.0475665	-0.939816	0.0695405	1.60255	0.302815	0	0	0.684854	-0.449041	0.762282	1.03677	0.681645	0	0
1.52	-0.177619	1.19114	-1.24882	0.683005	0.282506	0.954706	0.122788	0.0161038	-0.141493	0.694756	-0.273854	0	0	-0.505761	-0.110788	-0.175284	0.165332	-0.222906	0	0	-0.359469	0.180392	0.145666	-0.0501506	-0.939719	0.0672908	1.60226	0.303737	0	0	0.682886	-0.44665	0.758735	1.03614	0.685204	0	0
1.53	-0.173495	1.19901	-1.25277	0.683148	0.272814	0.952862	0.123198	0.0118259	-0.14429	0.631741	-0.260628	0	0	-0.509496	-0.107853	-0.175705	0.166392	-0.214054	0	0	-0.351303	0.177083	0.144658	-0.0537982	-0.939445	0.0642625	1.60239	0.304546	0	0	0.680962	-0.44487	0.756035	1.03631	0.688741	0	0
1.54	-0.167302	1.20685	-1.25882	0.683206	0.262924	0.950851	0.121416	0.00702591	-0.150664	0.5666	-0.244948	0	0	-0.51349	-0.104287	-0.176413	0.16779	-0.205235	0	0	-0.342967	0.172912	0.143735	-0.0581088	-0.93883	0.060862	1.60273	0.304781	0	0	0.679409	-0.443773	0.754764	1.0367	0.692965	0	0
1.55	-0.159087	1.21498	-1.26688	0.683143	0.252866	0.948659	0.118234	0.00210281	-0.160076	0.499821	-0.229538	0	0	-0.517442	-0.100232	-0.176941	0.169559	-0.196813	0	0	-0.334167	0.167786	0.1428	-0.062598	-0.938306	0.0576604	1.60309	0.304789	0	0	0.678241	-0.443324	0.754774	1.03703	0.69765	0	0
1.56	-0.149959	1.22344	-1.27591	0.682934	0.242637	0.946307	0.114128	-0.00215319	-0.171364	0.431203	-0.217105	0	0	-0.520942	-0.0963106	-0.177156	0.172057	-0.188897	0	0	-0.32477	0.162107	0.141847	-0.0669944	-0.937499	0.0548513	1.60328	0.30472	0	0	0.676782	-0.443137	0.754708	1.03768	0.700397	0	0
